# AST/ASF file generated using VICON BodyLanguage
# -----------------------------------------------
:version 1.10
:name VICON
:units
  mass 1.0
  length 0.45
  angle deg
:documentation
   .ast/.asf automatically generated from VICON data using
   VICON BodyBuilder and BodyLanguage model FoxedUp or BRILLIANT.MOD
:root
   order TX TY TZ RX RY RZ
   axis XYZ
   position 0 0 0  
   orientation 0 0 0 
:bonedata
  begin
     id 1 
     name lhipjoint
     direction 0.535335 -0.74333 0.401095 
     length 2.04549 
     axis 0 0 0  XYZ
  end
  begin
     id 2 
     name lfemur
     direction 0.34202 -0.939693 0  
     length 6.95643  
     axis 0 0 20  XYZ
    dof rx ry rz
    limits (-160.0 20.0)
           (-70.0 70.0)
           (-60.0 70.0)
  end
  begin
     id 3 
     name ltibia
     direction 0.34192 -0.939729 0   
     length 5.55969   
     axis 0 0 20   XYZ
    dof rx
    limits (-10.0 170.0)
  end
  begin
     id 4 
     name lfoot
     direction 0.216943 -0.596046 0.773088   
     length 2.27918   
     axis -90 7.62852e-016 20   XYZ
    dof rx rz
    limits (-45.0 90.0)
           (-70.0 20.0)
  end
  begin
     id 5 
     name ltoes
     direction 1.53519e-011 -4.21748e-011 1   
     length 1.05562   
     axis -90 7.62852e-016 20   XYZ
    dof rx
    limits (-90.0 20.0)
  end
  begin
     id 6 
     name rhipjoint
     direction -0.576368 -0.719173 0.38806   
     length 2.1142  
     axis 0 0 0  XYZ 
  end
  begin
     id 7 
     name rfemur
     direction -0.34202 -0.939693 0   
     length 7.07928   
     axis 0 0 -20   XYZ
    dof rx ry rz
    limits (-160.0 20.0)
           (-70.0 70.0)
           (-70.0 60.0)
  end
  begin
     id 8 
     name rtibia
     direction -0.34202 -0.939693 0   
     length 5.79974   
     axis 0 0 -20   XYZ
    dof rx
    limits (-10.0 170.0)
 end
 begin
     id 9 
     name rfoot
     direction -0.189288 -0.520065 0.832888   
     length 2.42173  
     axis -90 -7.62852e-016 -20   XYZ
    dof rx rz
    limits (-45.0 90.0)
           (-20.0 70.0)
  end
  begin
     id 10 
     name rtoes
     direction -1.53574e-011 -4.21658e-011 1   
     length 1.14469   
     axis -90 -7.62852e-016 -20   XYZ
    dof rx
    limits (-90.0 20.0)
  end
  begin
     id 11 
     name lowerback
     direction -0.00135702 0.993803 0.111144   
     length 1.91308   
     axis 0 0 0   XYZ
    dof rx ry rz
    limits (-20.0 45.0)
           (-30.0 30.0)
           (-30.0 30.0)
  end
  begin
     id 12 
     name upperback
     direction -0.0056745 0.999813 0.0184631   
     length 1.9212   
     axis 0 0 0   XYZ
    dof rx ry rz
    limits (-20.0 45.0)
           (-30.0 30.0)
           (-30.0 30.0)
  end
  begin
     id 13 
     name thorax
     direction -0.00733434 0.999426 -0.0330788   
     length 1.94196   
     axis 0 0 0   XYZ
    dof rx ry rz
    limits (-20.0 45.0)
           (-30.0 30.0)
           (-30.0 30.0)
  end
  begin
     id 14 
     name lowerneck
     direction 0.0563074 0.996944 -0.0541571   
     length 2.34257   
     axis 0 0 0   XYZ
    dof rx ry rz
    limits (-20.0 45.0)
           (-30.0 30.0)
           (-30.0 30.0)
  end
  begin
     id 15 
     name upperneck
     direction -0.0544519 0.976166 -0.210085   
     length 2.32506   
     axis 0 0 0   XYZ
    dof rx ry rz
    limits (-20.0 45.0)
           (-30.0 30.0)
           (-30.0 30.0)
  end
  begin
     id 16
     name head
     direction -0.0226035 0.997615 -0.0652205  
     length 2.3648  
     axis 0 0 0   XYZ
    dof rx ry rz
    limits (-20.0 45.0)
           (-30.0 30.0)
           (-30.0 30.0)
  end
  begin
     id 17 
     name lclavicle
     direction 0.92109 0.381297 -0.0787716  
     length 4.0487  
     axis 0 0 0   XYZ
    dof ry rz
    limits (-20.0 10.0)
           (0.0 20.0)
  end
  begin
     id 18 
     name lhumerus
     direction 1 -4.48986e-011 3.56724e-027   
     length 4.94991   
     axis 180 -30 -90   XYZ
    dof rx ry rz
    limits (-60.0 90.0)
           (-90.0 90.0)
           (-90.0 90.0)
  end
  begin
     id 19
     name lradius
     direction 1 -4.48981e-011 8.62147e-027   
     length 2.7606   
     axis 180 -30 -90   XYZ
    dof rx
    limits (-10.0 170.0)
  end
  begin
     id 20
     name lwrist
     direction 1 -4.48989e-011 1.59799e-026   
     length 1.3803   
     axis -1.17785e-014 90 90   XYZ
    dof ry
    limits (-180.0 0.0)
 end
  begin
     id 21 
     name lhand
     direction 1 -4.48896e-011 3.19599e-026   
     length 0.843936   
     axis -2.03931e-014 90 90   XYZ
    dof rx rz
    limits (-90.0 90.0)
           (-45.0 45.0)
  end
  begin
     id 22 
     name lfingers
     direction 1 -4.48887e-011 6.39197e-026   
     length 0.680403   
     axis -4.07862e-014 90 90   XYZ
    dof rx
    limits (0.0 90.0)
  end
  begin
     id 23
     name lthumb
     direction 0.707107 -6.348e-011 0.707107   
     length 0.976926   
     axis -90 45 2.85299e-015   XYZ
    dof rx rz
    limits (-45.0 45.0)
           (-45.0 45.0)
  end
  begin
     id 24 
     name rclavicle
     direction -0.951104 0.307692 -0.026953   
     length 4.21801  
     axis 0 0 0   XYZ 
    dof ry rz
    limits (-10.0 20.0)
           (-20.0 0.0)
  end
  begin
     id 25 
     name rhumerus
     direction -1 -4.4896e-011 -1.8171e-018  
     length 4.32982   
     axis 180 30 90   XYZ
    dof rx ry rz
    limits (-90.0 60.0)
           (-90.0 90.0)
           (-90.0 90.0)
  end
  begin
     id 26 
     name rradius
     direction -1 -4.48959e-011 8.25165e-027   
     length 3.20057   
     axis 180 30 90   XYZ
    dof rx
    limits (-10.0 170.0)
  end
  begin
     id 27 
     name rwrist
     direction -1 -4.48997e-011 1.59799e-026   
     length 1.60029   
     axis -1.17785e-014 -90 -90   XYZ
    dof ry
    limits (-180.0 0.0)
  end
  begin
     id 28
     name rhand
     direction -1 -4.49023e-011 3.19599e-026   
     length 0.960433   
     axis -2.03931e-014 -90 -90   XYZ
    dof rx rz
    limits (-90.0 90.0)
           (-45.0 45.0)
  end
  begin
     id 29
     name rfingers
     direction -1 -4.48802e-011 6.39197e-026   
     length 0.774326   
     axis -4.07862e-014 -90 -90   XYZ
    dof rx
    limits (0.0 90.0)
  end
  begin
     id 30
     name rthumb
     direction -0.707107 -6.34876e-011 0.707107   
     length 1.11178   
     axis -90 -45 -2.85299e-015   XYZ
    dof rx rz
    limits (-45.0 45.0)
           (-45.0 45.0)
  end
:hierarchy
  begin
    root lhipjoint rhipjoint lowerback
    lhipjoint lfemur
    lfemur ltibia
    ltibia lfoot
    lfoot ltoes
    rhipjoint rfemur
    rfemur rtibia
    rtibia rfoot
    rfoot rtoes
    lowerback upperback
    upperback thorax
    thorax lowerneck lclavicle rclavicle
    lowerneck upperneck
    upperneck head
    lclavicle lhumerus
    lhumerus lradius
    lradius lwrist
    lwrist lhand lthumb
    lhand lfingers
    rclavicle rhumerus
    rhumerus rradius
    rradius rwrist
    rwrist rhand rthumb
    rhand rfingers
end

#!OML:ASF C:\KaitlinTest1\Natural Motions\Nikki\Session 2\Nikki.ASF
:FULLY-SPECIFIED
:DEGREES
99
root -13.3008 16.5553 4.86175 -80.5129 88.4242 -89.1134
lowerback -9.8107 -1.83958 1.74683
upperback -3.57773 -2.47043 -0.751929
thorax 1.66997 -1.19592 -2.02812
lowerneck -6.06511 -10.5467 -10.107
upperneck 5.69975 41.0522 5.64162
head 167.442 63.3139 -37.7415
rclavicle 1.3418e-014 -2.38542e-015
rhumerus -34.8913 -11.7001 -88.902
rradius 22.5981
rwrist 17.3741
rhand -35.642 4.40696
rfingers 7.12502
rthumb -8.76435 -25.3911
lclavicle 1.3418e-014 -2.38542e-015
lhumerus -37.887 6.64063 84.801
lradius 25.161
lwrist -37.576
lhand -31.5956 2.86894
lfingers 7.12502
lthumb -4.85824 32.7932
rfemur -6.83192 -16.5196 21.1345
rtibia 12.7886
rfoot -11.7507 9.83462
rtoes 3.65764e-014
lfemur -13.0652 15.3285 -18.0664
ltibia 20.0401
lfoot -7.79445 -16.5207
ltoes 7.15625e-014
100
root -13.3063 16.557 4.86222 -80.1006 88.4369 -88.7459
lowerback -9.69599 -1.82383 1.70966
upperback -3.57895 -2.44555 -0.750874
thorax 1.60867 -1.18455 -1.99917
lowerneck -6.11449 -10.5846 -10.0967
upperneck 5.64702 40.9202 5.59434
head 167.306 63.4137 -37.8239
rclavicle 1.31198e-014 4.37326e-015
rhumerus -34.6633 -10.8317 -89.2918
rradius 22.8827
rwrist 16.7029
rhand -35.8528 4.8952
rfingers 7.12502
rthumb -8.9678 -24.8942
lclavicle 1.31198e-014 4.37326e-015
lhumerus -37.6846 5.95977 84.9396
lradius 25.4952
lwrist -37.3571
lhand -31.7015 2.91426
lfingers 7.12502
lthumb -4.96055 32.8362
rfemur -6.93658 -16.5127 21.1425
rtibia 12.8262
rfoot -11.7257 9.8208
rtoes -1.74931e-014
lfemur -13.1425 15.3472 -18.1029
ltibia 20.0381
lfoot -7.74471 -16.5146
ltoes -9.70069e-014
101
root -13.3131 16.5599 4.86223 -80.9621 88.4602 -89.6769
lowerback -9.60483 -1.83224 1.67665
upperback -3.57362 -2.45345 -0.753084
thorax 1.56519 -1.18928 -1.98044
lowerneck -6.19513 -10.6256 -10.0559
upperneck 5.60014 40.8301 5.55768
head 167.171 63.4354 -37.9066
rclavicle -7.36249e-014 -1.66979e-014
rhumerus -34.4536 -10.1175 -89.5938
rradius 23.2373
rwrist 16.3968
rhand -35.9814 4.92454
rfingers 7.12502
rthumb -9.09187 -24.8595
lclavicle -7.36249e-014 -1.66979e-014
lhumerus -37.4472 5.04567 85.2155
lradius 25.8704
lwrist -36.2073
lhand -31.6687 2.73715
lfingers 7.12502
lthumb -4.92889 32.6598
rfemur -7.07083 -16.4927 21.1542
rtibia 12.8672
rfoot -11.6961 9.77122
rtoes -1.59028e-014
lfemur -13.2673 15.3502 -18.1605
ltibia 20.043
lfoot -7.7226 -16.547
ltoes -1.74931e-014
102
root -13.3192 16.559 4.86314 -82.8695 88.4709 -91.6285
lowerback -9.4716 -1.8461 1.63175
upperback -3.57042 -2.46778 -0.737567
thorax 1.49746 -1.19747 -1.93574
lowerneck -6.27534 -10.6719 -10.0422
upperneck 5.5256 40.6534 5.48639
head 166.962 63.5543 -38.0284
rclavicle 7.70291e-016 4.37326e-015
rhumerus -34.3073 -9.22392 -89.9604
rradius 23.6979
rwrist 15.8144
rhand -36.0612 5.06285
rfingers 7.12502
rthumb -9.16889 -24.7178
lclavicle 7.70291e-016 4.37326e-015
lhumerus -37.2283 4.54272 85.2591
lradius 26.21
lwrist -35.9123
lhand -31.7797 2.56892
lfingers 7.12502
lthumb -5.03599 32.4891
rfemur -7.14987 -16.4651 21.1676
rtibia 12.9241
rfoot -11.7164 9.69398
rtoes 8.74653e-015
lfemur -13.3461 15.3725 -18.1906
ltibia 20.0231
lfoot -7.71457 -16.6159
ltoes -5.40694e-014
103
root -13.3261 16.5607 4.86278 -81.6088 88.4732 -90.4296
lowerback -9.40364 -1.82639 1.63628
upperback -3.53961 -2.44268 -0.755307
thorax 1.49218 -1.18568 -1.95221
lowerneck -6.41299 -10.6833 -10.0171
upperneck 5.48458 40.6645 5.48016
head 166.981 63.5709 -38.0568
rclavicle 4.82053e-015 1.98785e-015
rhumerus -34.1872 -8.21461 -90.3418
rradius 24.2356
rwrist 15.2802
rhand -36.131 5.15704
rfingers 7.12502
rthumb -9.23616 -24.6207
lclavicle 4.82053e-015 1.98785e-015
lhumerus -36.9569 3.84805 85.2988
lradius 26.6266
lwrist -35.5705
lhand -31.6675 2.65394
lfingers 7.12502
lthumb -4.92768 32.5766
rfemur -7.28426 -16.4616 21.19
rtibia 12.9728
rfoot -11.7014 9.72351
rtoes 4.77083e-014
lfemur -13.4403 15.363 -18.2291
ltibia 20.0154
lfoot -7.6718 -16.5508
ltoes 1.11319e-014
104
root -13.3319 16.5649 4.86125 -79.6217 88.4695 -88.5385
lowerback -9.32559 -1.78845 1.65771
upperback -3.54851 -2.39299 -0.779856
thorax 1.44031 -1.16204 -1.98147
lowerneck -6.47932 -10.72 -9.95505
upperneck 5.46159 40.6366 5.48728
head 166.966 63.5664 -38.0842
rclavicle -9.0944e-015 -8.34896e-015
rhumerus -34.0309 -7.45649 -90.6363
rradius 24.5912
rwrist 14.9969
rhand -36.1225 5.32807
rfingers 7.12502
rthumb -9.22803 -24.45
lclavicle -9.0944e-015 -8.34896e-015
lhumerus -36.7191 2.96821 85.42
lradius 27.0524
lwrist -34.7664
lhand -31.6788 2.67828
lfingers 7.12502
lthumb -4.93858 32.6007
rfemur -7.46656 -16.4917 21.2243
rtibia 13.0042
rfoot -11.6415 9.82046
rtoes -4.53229e-014
lfemur -13.5846 15.3972 -18.2799
ltibia 20.0232
lfoot -7.63805 -16.5167
ltoes 0
105
root -13.3438 16.5689 4.85906 -71.8658 88.3742 -80.9437
lowerback -9.20839 -1.6973 1.74434
upperback -3.58017 -2.27834 -0.769743
thorax 1.34522 -1.10691 -2.00335
lowerneck -6.56408 -10.7396 -9.95404
upperneck 5.39755 40.5435 5.45589
head 167.056 63.5235 -37.9968
rclavicle 4.96962e-015 -3.97569e-015
rhumerus -33.9211 -6.37368 -91.0197
rradius 25.1743
rwrist 14.0816
rhand -36.2408 5.48895
rfingers 7.12502
rthumb -9.34215 -24.284
lclavicle 4.96962e-015 -3.97569e-015
lhumerus -36.4407 2.33546 85.4213
lradius 27.4712
lwrist -34.174
lhand -31.5911 2.55954
lfingers 7.12502
lthumb -4.8539 32.4839
rfemur -7.7903 -16.3726 21.3521
rtibia 13.0771
rfoot -11.6155 9.92501
rtoes 2.46493e-014
lfemur -13.7886 15.363 -18.2843
ltibia 19.9828
lfoot -7.55361 -16.2592
ltoes -2.8625e-014
106
root -13.3519 16.5705 4.86031 -73.4901 88.32 -82.6223
lowerback -9.06874 -1.66847 1.79184
upperback -3.53951 -2.24465 -0.787124
thorax 1.30947 -1.0918 -2.04067
lowerneck -6.67081 -10.8298 -9.86116
upperneck 5.29209 40.271 5.3984
head 166.884 63.662 -38.0906
rclavicle 6.06293e-015 -7.15625e-015
rhumerus -33.8095 -5.32828 -91.4251
rradius 25.7694
rwrist 13.3813
rhand -36.319 5.61937
rfingers 7.12502
rthumb -9.41758 -24.1502
lclavicle 6.06293e-015 -7.15625e-015
lhumerus -36.1289 1.48123 85.4646
lradius 27.9306
lwrist -33.2628
lhand -31.6412 2.55472
lfingers 7.12502
lthumb -4.90233 32.478
rfemur -7.92466 -16.3397 21.4565
rtibia 13.152
rfoot -11.6165 9.84823
rtoes 1.145e-013
lfemur -13.8812 15.3643 -18.2392
ltibia 19.944
lfoot -7.51457 -16.2957
ltoes 4.29375e-014
107
root -13.3598 16.5766 4.85891 -73.6305 88.3962 -82.8727
lowerback -8.932 -1.66482 1.72901
upperback -3.54969 -2.23282 -0.80863
thorax 1.22602 -1.08704 -2.02153
lowerneck -6.79264 -10.9012 -9.80304
upperneck 5.21145 40.0764 5.32733
head 166.544 63.8473 -38.3291
rclavicle -1.9307e-014 -5.1684e-015
rhumerus -33.7197 -4.30048 -91.7228
rradius 26.3362
rwrist 12.8471
rhand -36.3751 5.77163
rfingers 7.12502
rthumb -9.4717 -23.9955
lclavicle -1.9307e-014 -5.1684e-015
lhumerus -35.8525 0.854413 85.43
lradius 28.3601
lwrist -32.8663
lhand -31.7198 2.63408
lfingers 7.12502
lthumb -4.97813 32.5556
rfemur -8.14491 -16.3121 21.4097
rtibia 13.2476
rfoot -11.5734 9.81568
rtoes -4.92986e-014
lfemur -14.0284 15.3637 -18.3719
ltibia 19.9053
lfoot -7.45509 -16.3161
ltoes 5.725e-014
108
root -13.3703 16.5779 4.85865 -73.8911 88.4113 -83.2005
lowerback -8.74384 -1.65063 1.69524
upperback -3.53936 -2.21094 -0.798624
thorax 1.13604 -1.07771 -1.98397
lowerneck -6.91566 -10.9152 -9.81707
upperneck 5.1835 40.1474 5.3307
head 166.739 63.6664 -38.2077
rclavicle -5.82066e-014 -1.51076e-014
rhumerus -33.7418 -2.8831 -92.0863
rradius 27.0065
rwrist 11.9021
rhand -36.5143 6.18579
rfingers 7.12502
rthumb -9.60605 -23.5752
lclavicle -5.82066e-014 -1.51076e-014
lhumerus -35.6123 0.0205183 85.4794
lradius 28.8931
lwrist -32.0254
lhand -31.8178 2.63382
lfingers 7.12502
lthumb -5.0728 32.5531
rfemur -8.3154 -16.2087 21.4279
rtibia 13.354
rfoot -11.581 9.69477
rtoes 1.51076e-014
lfemur -14.1465 15.3671 -18.424
ltibia 19.8635
lfoot -7.38017 -16.315
ltoes 5.08889e-014
109
root -13.3788 16.5796 4.85696 -73.6305 88.4443 -83.0293
lowerback -8.61052 -1.63237 1.67689
upperback -3.51088 -2.18531 -0.819009
thorax 1.09323 -1.06611 -1.98844
lowerneck -7.07813 -10.9654 -9.78203
upperneck 5.10312 40.041 5.28501
head 166.655 63.7003 -38.2742
rclavicle 8.48562e-015 5.96354e-015
rhumerus -33.7221 -1.77035 -92.3889
rradius 27.7031
rwrist 11.1611
rhand -36.6212 6.56745
rfingers 7.12502
rthumb -9.70916 -23.1888
lclavicle 8.48562e-015 5.96354e-015
lhumerus -35.3648 -0.67962 85.4442
lradius 29.4123
lwrist -31.2363
lhand -31.8893 2.702
lfingers 7.12502
lthumb -5.14182 32.6196
rfemur -8.50811 -16.2096 21.4256
rtibia 13.4668
rfoot -11.6084 9.67402
rtoes -2.22639e-014
lfemur -14.2731 15.3994 -18.5142
ltibia 19.8213
lfoot -7.32726 -16.3357
ltoes -1.43125e-014
110
root -13.3868 16.5812 4.8566 -73.6539 88.4245 -83.1275
lowerback -8.43114 -1.63278 1.68554
upperback -3.49167 -2.18719 -0.789201
thorax 1.01513 -1.06875 -1.95706
lowerneck -7.19532 -11.0133 -9.77205
upperneck 5.01277 39.8375 5.19399
head 166.37 63.8411 -38.445
rclavicle -1.70209e-014 -6.36111e-015
rhumerus -33.841 -0.364889 -92.6774
rradius 28.5486
rwrist 10.4003
rhand -36.6117 6.70777
rfingers 7.12502
rthumb -9.70002 -23.0489
lclavicle -1.70209e-014 -6.36111e-015
lhumerus -35.1169 -1.41517 85.3927
lradius 29.9923
lwrist -30.3931
lhand -31.9847 2.62756
lfingers 7.12502
lthumb -5.23396 32.5429
rfemur -8.68203 -16.1424 21.4751
rtibia 13.553
rfoot -11.5478 9.61914
rtoes -2.70347e-014
lfemur -14.3996 15.3927 -18.5308
ltibia 19.8227
lfoot -7.31142 -16.3362
ltoes 1.59028e-015
111
root -13.3992 16.5844 4.85676 -75.6839 88.4251 -85.2927
lowerback -8.27723 -1.60691 1.68397
upperback -3.4644 -2.15314 -0.782374
thorax 0.960434 -1.05309 -1.94158
lowerneck -7.36737 -11.062 -9.79573
upperneck 4.90385 39.6888 5.13407
head 166.445 63.8556 -38.3872
rclavicle 2.73329e-015 7.95139e-016
rhumerus -33.9766 1.78052 -93.1809
rradius 29.4105
rwrist 8.85379
rhand -36.7896 6.7588
rfingers 7.12502
rthumb -9.87163 -22.9898
lclavicle 2.73329e-015 7.95139e-016
lhumerus -34.8569 -2.10147 85.295
lradius 30.6165
lwrist -29.934
lhand -31.9699 2.64745
lfingers 7.12502
lthumb -5.21969 32.5632
rfemur -8.92626 -16.08 21.5443
rtibia 13.6593
rfoot -11.56 9.50639
rtoes 2.14687e-014
lfemur -14.6357 15.4295 -18.5866
ltibia 19.816
lfoot -7.21875 -16.4293
ltoes 3.02153e-014
112
root -13.4122 16.587 4.85645 -77.8096 88.4671 -87.5517
lowerback -8.12769 -1.61296 1.64531
upperback -3.4053 -2.15964 -0.789813
thorax 0.940023 -1.05723 -1.92435
lowerneck -7.60901 -11.1475 -9.73672
upperneck 4.7799 39.4834 5.04268
head 166.148 63.9639 -38.5953
rclavicle -3.94028e-014 -7.15625e-015
rhumerus -34.0464 3.21509 -93.4059
rradius 30.3073
rwrist 8.11933
rhand -36.701 6.77032
rfingers 7.12502
rthumb -9.78622 -22.9823
lclavicle -3.94028e-014 -7.15625e-015
lhumerus -34.5869 -2.85934 85.1536
lradius 31.2769
lwrist -29.353
lhand -32.2375 2.72748
lfingers 7.12502
lthumb -5.478 32.6367
rfemur -9.21465 -16.0619 21.5678
rtibia 13.8448
rfoot -11.5864 9.4055
rtoes 1.27222e-014
lfemur -14.8415 15.3922 -18.6853
ltibia 19.7609
lfoot -7.11234 -16.4557
ltoes -1.74931e-014
